<svg xmlns="http://www.w3.org/2000/svg" width="80" height="62" fill="none"><rect width="75" height="57" x="2.5" y="2.5" stroke="#000" stroke-width="5" rx="7.5"/><path fill="#000" d="M38.392 35.313c0 .775-.194 1.616-.582 2.524-.376.896-.973 1.782-1.792 2.656-.82.863-1.865 1.566-3.138 2.109-1.273.542-2.756.813-4.45.813-1.283 0-2.45-.122-3.502-.365a10.1 10.1 0 0 1-2.872-1.13c-.853-.52-1.638-1.2-2.358-2.041a12.171 12.171 0 0 1-1.643-2.557 13.836 13.836 0 0 1-1.03-3.038 16.91 16.91 0 0 1-.332-3.42c0-1.959.283-3.713.847-5.262.576-1.55 1.395-2.872 2.457-3.968a10.627 10.627 0 0 1 3.735-2.524c1.428-.575 2.95-.863 4.566-.863 1.97 0 3.724.393 5.262 1.179 1.539.786 2.718 1.76 3.537 2.922.819 1.15 1.228 2.24 1.228 3.27 0 .565-.199 1.063-.598 1.494-.398.432-.88.648-1.444.648-.63 0-1.107-.15-1.428-.449-.31-.298-.658-.813-1.045-1.543-.642-1.207-1.4-2.109-2.275-2.707-.863-.597-1.931-.896-3.204-.896-2.025 0-3.641.77-4.848 2.308-1.195 1.538-1.793 3.724-1.793 6.557 0 1.893.266 3.47.797 4.732.532 1.25 1.284 2.186 2.258 2.805.974.62 2.114.93 3.42.93 1.417 0 2.612-.349 3.586-1.046.985-.708 1.726-1.743 2.225-3.104.21-.642.47-1.162.78-1.56.31-.41.808-.615 1.494-.615.587 0 1.09.205 1.51.614.421.41.632.919.632 1.527Zm25.168 0c0 .775-.194 1.616-.582 2.524-.376.896-.973 1.782-1.793 2.656-.819.863-1.864 1.566-3.137 2.109-1.273.542-2.756.813-4.45.813-1.283 0-2.45-.122-3.502-.365a10.101 10.101 0 0 1-2.872-1.13c-.853-.52-1.638-1.2-2.358-2.041a12.167 12.167 0 0 1-1.643-2.557 13.836 13.836 0 0 1-1.03-3.038 16.91 16.91 0 0 1-.332-3.42c0-1.959.283-3.713.847-5.262.575-1.55 1.395-2.872 2.457-3.968A10.628 10.628 0 0 1 48.9 19.11c1.428-.575 2.95-.863 4.566-.863 1.97 0 3.724.393 5.262 1.179 1.539.786 2.718 1.76 3.537 2.922.819 1.15 1.228 2.24 1.228 3.27 0 .565-.2 1.063-.598 1.494-.398.432-.88.648-1.444.648-.63 0-1.107-.15-1.428-.449-.31-.298-.658-.813-1.046-1.543-.641-1.207-1.4-2.109-2.274-2.707-.863-.597-1.931-.896-3.204-.896-2.025 0-3.641.77-4.848 2.308-1.195 1.538-1.793 3.724-1.793 6.557 0 1.893.266 3.47.797 4.732.532 1.25 1.284 2.186 2.258 2.805.974.62 2.114.93 3.42.93 1.417 0 2.612-.349 3.586-1.046.985-.708 1.727-1.743 2.225-3.104.21-.642.47-1.162.78-1.56.31-.41.808-.615 1.494-.615.587 0 1.09.205 1.51.614.421.41.632.919.632 1.527Z"/></svg>