<svg xmlns="http://www.w3.org/2000/svg" width="62" height="62" fill="none"><rect width="57" height="57" x="2.5" y="2.5" stroke="#000" stroke-width="5" rx="28.5"/><path fill="#000" d="M15.58 24.576c0-.418.162-.819.45-1.114A1.515 1.515 0 0 1 17.114 23c.407 0 .797.166 1.085.462.288.295.45.696.45 1.114 0 .418-.162.818-.45 1.114a1.515 1.515 0 0 1-1.085.461c-.407 0-.798-.166-1.085-.461a1.597 1.597 0 0 1-.45-1.114Zm1.279 9.98v4.201c0 .581-.457 1.05-1.023 1.05-.566 0-1.023-.469-1.023-1.05v-7.324l-.915 1.563c-.29.496-.92.657-1.403.358a1.068 1.068 0 0 1-.349-1.441l1.864-3.185a3.056 3.056 0 0 1 2.631-1.53h.95c1.077 0 2.075.582 2.631 1.53l1.864 3.185a1.067 1.067 0 0 1-.348 1.44 1.01 1.01 0 0 1-1.404-.357l-.918-1.563v7.324c0 .581-.457 1.05-1.023 1.05-.565 0-1.023-.469-1.023-1.05v-4.202h-.511ZM29.115 23c.408 0 .798.166 1.086.462.287.295.45.696.45 1.114 0 .418-.163.818-.45 1.114a1.515 1.515 0 0 1-1.086.461c-.407 0-.797-.166-1.085-.461a1.597 1.597 0 0 1-.45-1.114c0-.418.162-.819.45-1.114A1.515 1.515 0 0 1 29.115 23Zm-2.302 12.606h-.57c-.348 0-.594-.352-.485-.693l1.225-3.768-1.084 1.851a1.01 1.01 0 0 1-1.404.358 1.067 1.067 0 0 1-.349-1.441l1.714-2.928a3.565 3.565 0 0 1 3.07-1.783h.37c1.258 0 2.421.676 3.07 1.782l1.714 2.929a1.067 1.067 0 0 1-.348 1.44 1.01 1.01 0 0 1-1.404-.357l-1.084-1.848 1.225 3.765a.524.524 0 0 1-.486.693h-.57v3.151c0 .581-.457 1.05-1.023 1.05-.566 0-1.023-.469-1.023-1.05v-3.151h-.511v3.151c0 .581-.458 1.05-1.024 1.05-.566 0-1.023-.469-1.023-1.05v-3.151ZM42.303 26.151a1.576 1.576 0 1 0 0-3.151 1.576 1.576 0 0 0 0 3.151Zm-2.347 4.964a.787.787 0 1 0-.555-1.474 5.253 5.253 0 1 0 6.487 7.386.788.788 0 1 0-1.392-.742 3.675 3.675 0 1 1-4.54-5.17Zm4.573-2.337-.062-.319a1.565 1.565 0 0 0-1.537-1.257c-.988 0-1.73.903-1.536 1.871l.758 3.792a2.1 2.1 0 0 0 2.062 1.687h3.3c.22 0 .413.135.492.341l1.192 3.181a1.05 1.05 0 0 0 1.316.627l1.576-.525a1.05 1.05 0 0 0 .663-1.33 1.05 1.05 0 0 0-1.33-.662l-.613.203-.838-2.232a2.628 2.628 0 0 0-2.459-1.704h-2.248l-.316-1.576h2.082a1.05 1.05 0 1 0 0-2.1h-2.502v.003Z"/></svg>