<svg xmlns="http://www.w3.org/2000/svg" width="100" height="100" fill="none"><path fill="#000" d="M45.626 37.313a3.657 3.657 0 1 0 0-7.313 3.657 3.657 0 0 0 0 7.313ZM40.18 48.831a1.826 1.826 0 1 0-1.287-3.42C34.283 47.148 31 51.596 31 56.815c0 6.734 5.454 12.188 12.188 12.188 4.662 0 8.707-2.613 10.757-6.452a1.835 1.835 0 0 0-.755-2.476 1.828 1.828 0 0 0-2.475.754 8.518 8.518 0 0 1-7.527 4.517 8.528 8.528 0 0 1-8.532-8.532 8.534 8.534 0 0 1 5.523-7.983Zm10.612-5.424-.145-.739a3.631 3.631 0 0 0-3.565-2.917 3.632 3.632 0 0 0-3.565 4.342l1.76 8.798a4.872 4.872 0 0 0 4.784 3.916H57.715c.51 0 .96.312 1.143.792l2.765 7.382a2.435 2.435 0 0 0 3.055 1.455l3.657-1.22a2.435 2.435 0 0 0 1.538-3.084 2.435 2.435 0 0 0-3.085-1.54l-1.424.473-1.943-5.18a6.098 6.098 0 0 0-5.706-3.953h-5.218l-.731-3.657h4.83a2.435 2.435 0 0 0 2.437-2.438 2.435 2.435 0 0 0-2.437-2.437H50.79v.007Z"/><rect width="57" height="57" x="21.5" y="21.5" stroke="#000" stroke-width="5" rx="28.5"/></svg>