<svg xmlns="http://www.w3.org/2000/svg" width="100" height="100" fill="none"><rect width="57" height="57" x="21.5" y="21.5" stroke="#000" stroke-width="5" rx="28.5"/><path fill="#000" d="M46.46 41.73h-5.378v17.68c0 1.018-.227 1.777-.68 2.275-.454.486-1.041.73-1.76.73-.73 0-1.329-.249-1.793-.747-.454-.498-.681-1.25-.681-2.258V41.73h-5.379c-.841 0-1.466-.183-1.876-.548-.41-.377-.614-.87-.614-1.478 0-.63.21-1.129.63-1.494.432-.365 1.052-.548 1.86-.548h15.672c.852 0 1.483.188 1.892.565.421.376.631.868.631 1.477 0 .609-.21 1.101-.63 1.478-.421.365-1.052.547-1.893.547Zm21.25 0h-5.378v17.68c0 1.018-.227 1.777-.68 2.275-.454.486-1.041.73-1.76.73-.73 0-1.329-.249-1.793-.747-.454-.498-.681-1.25-.681-2.258V41.73h-5.379c-.841 0-1.466-.183-1.876-.548-.41-.377-.614-.87-.614-1.478 0-.63.21-1.129.63-1.494.432-.365 1.052-.548 1.86-.548h15.672c.852 0 1.483.188 1.892.565.421.376.631.868.631 1.477 0 .609-.21 1.101-.63 1.478-.421.365-1.052.547-1.893.547Z"/></svg>