<svg xmlns="http://www.w3.org/2000/svg" width="100" height="100" fill="none"><path fill="#000" d="M44.693 41.464H33.587v5.976h10.226c.753 0 1.312.172 1.677.515.377.332.565.775.565 1.328 0 .554-.183 1.007-.548 1.361-.365.344-.93.515-1.694.515H33.587v6.923h11.488c.775 0 1.356.183 1.743.548.399.354.598.83.598 1.428 0 .575-.2 1.045-.598 1.41-.387.355-.968.532-1.743.532H31.678c-1.074 0-1.849-.238-2.325-.714-.464-.476-.697-1.245-.697-2.308V40.684c0-.709.105-1.284.316-1.727.21-.454.537-.78.98-.98.453-.21 1.028-.315 1.726-.315h13.015c.786 0 1.367.177 1.744.531.387.343.58.797.58 1.362 0 .575-.193 1.04-.58 1.394-.377.343-.958.515-1.744.515Zm27.376 12.85c0 .774-.193 1.615-.58 2.523-.377.896-.975 1.782-1.794 2.656-.819.863-1.865 1.566-3.137 2.109-1.273.542-2.756.813-4.45.813-1.283 0-2.451-.122-3.502-.365a10.1 10.1 0 0 1-2.873-1.13c-.852-.52-1.638-1.2-2.357-2.041a12.168 12.168 0 0 1-1.644-2.557 13.836 13.836 0 0 1-1.029-3.038 16.917 16.917 0 0 1-.332-3.42c0-1.959.282-3.713.847-5.262.575-1.55 1.394-2.872 2.457-3.968a10.627 10.627 0 0 1 3.735-2.524c1.428-.575 2.95-.863 4.566-.863 1.97 0 3.724.393 5.262 1.179 1.539.786 2.717 1.76 3.536 2.922.82 1.15 1.229 2.24 1.229 3.27 0 .565-.2 1.063-.598 1.494-.398.432-.88.648-1.444.648-.63 0-1.107-.15-1.428-.448-.31-.3-.658-.814-1.046-1.544-.642-1.207-1.4-2.109-2.274-2.706-.863-.598-1.931-.897-3.204-.897-2.026 0-3.642.77-4.848 2.308-1.195 1.538-1.793 3.724-1.793 6.557 0 1.893.266 3.47.797 4.732.531 1.25 1.284 2.186 2.258 2.805.974.62 2.114.93 3.42.93 1.416 0 2.612-.349 3.586-1.046.985-.708 1.726-1.743 2.224-3.104.21-.642.47-1.162.78-1.56.31-.41.808-.615 1.495-.615.586 0 1.09.205 1.51.614.421.41.631.919.631 1.527Z"/><rect width="57" height="57" x="21.5" y="21.5" stroke="#000" stroke-width="5" rx="28.5"/></svg>