<svg xmlns="http://www.w3.org/2000/svg" width="62" height="62" fill="none"><path fill="#000" d="M20.543 18.804a1.93 1.93 0 0 0-.872-2.597 1.954 1.954 0 0 0-2.614.866l-5.234 10.395A7.71 7.71 0 0 0 11 30.937v.563c0 4.28 3.492 7.75 7.8 7.75h4.875v-.019a6.34 6.34 0 0 0 5.003-3.13 1.931 1.931 0 0 0-.713-2.645 1.958 1.958 0 0 0-2.663.708 2.445 2.445 0 0 1-2.114 1.21 2.429 2.429 0 0 1-2.438-2.421 2.429 2.429 0 0 1 2.438-2.422c.901 0 1.688.485 2.114 1.211a1.958 1.958 0 0 0 2.663.708 1.931 1.931 0 0 0 .713-2.645 6.38 6.38 0 0 0-3.559-2.852l4.924-1.332a1.94 1.94 0 0 0 1.371-2.379 1.95 1.95 0 0 0-2.395-1.362l-6.142 1.665 4.972-4.117a1.93 1.93 0 0 0 .25-2.73 1.96 1.96 0 0 0-2.748-.249l-6.21 5.14 1.402-2.785Zm19.914 25.392a1.93 1.93 0 0 0 .872 2.597c.962.478 2.132.09 2.614-.866l5.234-10.395A7.704 7.704 0 0 0 50 32.07V31.5c0-4.28-3.492-7.75-7.8-7.75h-4.875v.019a6.34 6.34 0 0 0-5.003 3.13 1.926 1.926 0 0 0 .713 2.645 1.958 1.958 0 0 0 2.663-.708 2.445 2.445 0 0 1 2.114-1.21 2.429 2.429 0 0 1 2.438 2.421 2.429 2.429 0 0 1-2.438 2.422 2.446 2.446 0 0 1-2.114-1.211 1.96 1.96 0 0 0-2.663-.709 1.931 1.931 0 0 0-.713 2.646 6.38 6.38 0 0 0 3.559 2.852l-4.924 1.332a1.938 1.938 0 0 0-1.371 2.379 1.951 1.951 0 0 0 2.395 1.362l6.136-1.665-4.972 4.117a1.93 1.93 0 0 0-.25 2.73 1.96 1.96 0 0 0 2.748.249l6.21-5.14-1.402 2.785h.006Z"/><rect width="57" height="57" x="2.5" y="2.5" stroke="#000" stroke-width="5" rx="28.5"/></svg>