<svg xmlns="http://www.w3.org/2000/svg" width="100" height="100" fill="none"><rect width="57" height="57" x="21.5" y="21.5" stroke="#000" stroke-width="5" rx="28.5"/><path fill="#000" d="M35.28 51.59h-1.726v7.82c0 1.03-.227 1.788-.681 2.275-.454.486-1.046.73-1.776.73-.786 0-1.395-.255-1.827-.764-.431-.509-.647-1.256-.647-2.24V40.683c0-1.063.238-1.832.714-2.308.476-.476 1.245-.714 2.308-.714h8.018c1.107 0 2.053.05 2.839.15a6.973 6.973 0 0 1 2.125.564 6.15 6.15 0 0 1 2.025 1.378 5.919 5.919 0 0 1 1.328 2.092 6.77 6.77 0 0 1 .465 2.507c0 1.815-.514 3.264-1.544 4.35-1.018 1.084-2.567 1.853-4.648 2.307.874.465 1.71 1.15 2.507 2.058a20.148 20.148 0 0 1 2.125 2.906c.63 1.018 1.118 1.942 1.46 2.772.355.82.532 1.384.532 1.694 0 .32-.105.641-.316.962-.199.31-.475.554-.83.73-.354.189-.763.283-1.228.283-.553 0-1.018-.133-1.395-.398a3.748 3.748 0 0 1-.98-.98 46.87 46.87 0 0 1-1.095-1.76l-1.975-3.287c-.709-1.206-1.345-2.125-1.91-2.756-.553-.63-1.117-1.062-1.693-1.294-.575-.233-1.3-.35-2.175-.35Zm2.822-10.226h-4.548v6.69h4.416c1.184 0 2.18-.099 2.988-.298.808-.21 1.422-.56 1.843-1.046.431-.498.647-1.179.647-2.042 0-.675-.171-1.267-.514-1.776a3.092 3.092 0 0 0-1.428-1.163c-.576-.243-1.71-.365-3.404-.365Zm24.471 11.157h-4.515v6.89c0 .984-.233 1.731-.698 2.24-.465.51-1.051.764-1.76.764-.741 0-1.339-.249-1.792-.747-.454-.51-.681-1.25-.681-2.225v-18.76c0-1.084.249-1.859.747-2.324.498-.465 1.29-.697 2.374-.697h6.325c1.87 0 3.31.144 4.317.432.996.276 1.853.736 2.573 1.378a6.171 6.171 0 0 1 1.66 2.357c.376.93.564 1.976.564 3.138 0 2.479-.763 4.36-2.29 5.644-1.528 1.273-3.802 1.91-6.824 1.91Zm-1.195-11.157h-3.32v7.438h3.32c1.162 0 2.13-.122 2.905-.365.786-.244 1.384-.642 1.793-1.196.41-.553.614-1.278.614-2.175 0-1.073-.315-1.948-.946-2.623-.708-.719-2.164-1.079-4.366-1.079Z"/></svg>