<svg xmlns="http://www.w3.org/2000/svg" width="100" height="100" fill="none"><path fill="#000" d="m72.45 59.488.053.016c-.021-.005-2.083-.75-4.255-5.787-1.102-2.556-2.461-4.167-3.726-5.184-.755-.73-1.742-1.212-2.733-1.506a6.134 6.134 0 0 0-.688-.179 10.235 10.235 0 0 0-2.146-.246l-14.051-.567c-5.573-7.293-6.622-7.645-6.969-7.76-.713-.242-4.056-.898-6.128.566a3.586 3.586 0 0 0-1.474 2.251l-2.619 1.343c-.451.231-.73.703-.713 1.212.084 2.283 1.007 4.948 3.31 4.948l3.862.11c.184.562.347 1.36.504 2.136.498 2.471 1.175 5.798 3.568 8.075v7.11a6.635 6.635 0 0 1-.268 1.05c-1.07.32-1.637 1.495-1.637 2.607 0 .724.588 1.312 1.312 1.312h3.972c.43 0 .834-.21 1.08-.567l1.822-2.629a1.32 1.32 0 0 0 .23-.697c.08-2.183.252-4.744.43-5.982 3.039-.073 4.75-.509 6.554-.96 1.092-.278 2.22-.562 3.752-.793 1.275 1.91 2.855 3.469 4.701 4.65l1.926 1.872c-.021.415-.058.824-.105 1.102-.955.478-1.39 1.742-1.39 2.697 0 .724.587 1.312 1.311 1.312h4.24c.378 0 .74-.163.987-.451l1.149-1.317a1.31 1.31 0 0 0 .325-.86v-5.064a1.32 1.32 0 0 0-.62-1.118c-.02-.015-2.14-1.374-2.14-3.227 0-.797-.016-2.55-.037-4.213 0 0 0 .005.006.005 2.67 6.192 5.457 7.152 5.992 7.283a1.315 1.315 0 0 0 1.585-.965 1.324 1.324 0 0 0-.971-1.585ZM39.149 43.044c-1.081 1.485-1.963 1.485-2.335 1.396a1.172 1.172 0 0 1-.882-1.102v-2.77c.43.036.819.1 1.07.167.363.263 1.16 1.139 2.147 2.31Zm26.86 20.93v3.904l-.436.499h-1.25c.363-.808.431-1.963.431-3.028 0-.351-.141-.692-.399-.939l-2.434-2.366a1.752 1.752 0 0 0-.22-.173c-1.727-1.081-3.186-2.566-4.33-4.413-.152-.252-.56-.908-1.41-.803-2.12.273-3.58.64-4.87.965-1.9.478-3.542.892-6.863.892-1.669 0-1.863 2.094-2.083 8.117l-1.212 1.748h-.656c.257-.52.45-1.202.577-2.041.01-.063.015-.132.015-.2V58.33c0-.394-.178-.766-.482-1.018-2.062-1.68-2.66-4.623-3.138-6.984-.299-1.474-.556-2.75-1.133-3.626a1.308 1.308 0 0 0-1.06-.588l-4.717-.13c-.21-.095-.494-.793-.63-1.617l2.435-1.249c.43-.22.703-.66.713-1.143.01-.588.236-.83.457-.982.498-.351 1.327-.456 2.099-.446v2.797c0 .735.55 1.427 1.275 1.61.105.027.241.048.404.048.561 0 1.437-.268 2.403-1.537 1.149 1.38 2.498 3.085 3.694 4.659.236.31.598.504.991.52l14.718.582c.54.005 1.648.12 2.603.483.346.152.76.383 1.212.73.21.21.372.445.456.728.01.977.08 6.266.08 7.798 0 2.466 1.783 4.229 2.76 5.01Z"/><path stroke="#000" stroke-linecap="round" stroke-linejoin="round" stroke-miterlimit="10" stroke-width="2.903" d="M60.598 48.097s3.894.236 6.444 6.14c2.55 5.902 5.095 6.526 5.095 6.526"/><path fill="#000" d="M36.798 54.262a.787.787 0 1 0 .74 1.39c.047-.02 4.344-2.25 6.679-.346v4.481a.786.786 0 1 0 1.574 0V54.96c0-.21-.084-.41-.23-.556-3.091-3.09-8.532-.263-8.763-.142ZM44.805 47.86a.787.787 0 0 0-1.144-1.081c-.037.038-3.71 3.863-7.519 3.863a.786.786 0 1 0 0 1.574c4.476 0 8.495-4.177 8.663-4.355ZM57.854 47.546a.784.784 0 0 0-1.023-.43c-.525.215-5.153 2.188-5.153 5.242v.608c.01 1.664.022 4.445-.718 5.195a.45.45 0 0 1-.352.147.786.786 0 1 0 0 1.574c.567 0 1.07-.21 1.47-.609 1.206-1.212 1.19-3.92 1.18-6.312v-.603c0-1.695 3.09-3.343 4.177-3.783a.796.796 0 0 0 .42-1.029ZM55.278 30a6.685 6.685 0 1 0 6.685 6.685C61.957 32.996 58.967 30 55.278 30Zm3.169 7.472h-2.382v2.382a.786.786 0 1 1-1.574 0v-2.382h-2.382a.786.786 0 1 1 0-1.574h2.382v-2.383a.786.786 0 1 1 1.574 0v2.383h2.382a.786.786 0 1 1 0 1.574Z"/><rect width="75" height="57" x="12.5" y="21.5" stroke="#000" stroke-width="5" rx="7.5"/></svg>