<svg xmlns="http://www.w3.org/2000/svg" width="80" height="62" fill="none"><rect width="75" height="57" x="2.5" y="2.5" stroke="#fff" stroke-width="5" rx="7.5"/><path fill="#fff" d="m33.228 40.244-1.162-3.054h-9.894l-1.162 3.12c-.454 1.218-.841 2.042-1.162 2.474-.321.42-.847.631-1.578.631-.62 0-1.167-.227-1.643-.68-.476-.454-.714-.969-.714-1.545 0-.332.055-.675.166-1.029.11-.354.293-.846.548-1.477l6.226-15.805c.177-.454.387-.996.63-1.627.255-.642.52-1.173.797-1.594a3.26 3.26 0 0 1 1.113-1.013c.464-.265 1.034-.398 1.71-.398.686 0 1.256.133 1.71.398a3.13 3.13 0 0 1 1.112.997c.288.41.526.852.714 1.328.199.465.448 1.09.747 1.876l6.358 15.705c.498 1.195.747 2.064.747 2.606 0 .565-.238 1.085-.714 1.56a2.305 2.305 0 0 1-1.693.698c-.387 0-.72-.072-.996-.216a1.996 1.996 0 0 1-.697-.548c-.188-.243-.393-.608-.615-1.095-.21-.498-.393-.936-.548-1.312Zm-9.761-6.757h7.271L27.07 23.443l-3.602 10.044Zm21.715-14.825h6.424c1.672 0 3.105.155 4.3.465 1.196.31 2.28.89 3.254 1.743 2.535 2.17 3.802 5.468 3.802 9.895 0 1.46-.127 2.794-.382 4-.255 1.207-.647 2.297-1.179 3.271a10.195 10.195 0 0 1-2.042 2.59 8.448 8.448 0 0 1-2.141 1.411 9.694 9.694 0 0 1-2.507.747c-.886.144-1.887.216-3.005.216h-6.425c-.896 0-1.571-.133-2.025-.398a1.958 1.958 0 0 1-.897-1.146c-.132-.498-.199-1.14-.199-1.926V21.684c0-1.063.238-1.832.714-2.308.476-.476 1.245-.714 2.308-.714Zm1.909 3.902v16.518h3.735c.82 0 1.461-.022 1.926-.066a6.015 6.015 0 0 0 1.444-.332c.498-.177.93-.426 1.295-.747 1.65-1.395 2.474-3.797 2.474-7.206 0-2.401-.365-4.2-1.096-5.395-.72-1.195-1.61-1.953-2.673-2.274-1.062-.332-2.346-.498-3.851-.498H47.09Z"/></svg>