<svg xmlns="http://www.w3.org/2000/svg" width="62" height="62" fill="none"><path fill="#fff" d="M39.457 18.797c0-.44-.325-.797-.728-.797-.403 0-.729.356-.729.797v11.157c0 .44.326.796.729.796.403 0 .728-.356.728-.797v-3.187l1.464-.401a3.736 3.736 0 0 1 2.79.333 3.72 3.72 0 0 0 3.225.185l.79-.324a.798.798 0 0 0 .474-.747v-6.166c0-.573-.551-.946-1.02-.69l-.219.12a3.453 3.453 0 0 1-3.349 0 3.457 3.457 0 0 0-2.584-.311l-1.57.43v-.398Z"/><path fill="#fff" d="M30.23 13a3.03 3.03 0 0 1 2.171.923c.576.591.9 1.393.9 2.228 0 .836-.324 1.638-.9 2.229a3.03 3.03 0 0 1-2.17.923 3.03 3.03 0 0 1-2.17-.923 3.194 3.194 0 0 1-.9-2.229c0-.835.323-1.637.9-2.228A3.03 3.03 0 0 1 30.23 13Zm-4.604 25.212h-1.138c-.697 0-1.19-.703-.972-1.386l2.45-7.537-2.169 3.703a2.018 2.018 0 0 1-2.807.716c-.966-.598-1.28-1.891-.697-2.883l3.428-5.856c1.298-2.213 3.625-3.565 6.139-3.565h.742c2.513 0 4.84 1.352 6.14 3.565l3.427 5.856c.582.992.269 2.285-.697 2.883a2.018 2.018 0 0 1-2.808-.716l-2.168-3.696 2.45 7.53c.224.683-.275 1.386-.972 1.386h-1.139v6.302c0 1.162-.914 2.101-2.046 2.101-1.132 0-2.047-.939-2.047-2.1v-6.303H29.72v6.302c0 1.162-.914 2.101-2.046 2.101-1.132 0-2.047-.939-2.047-2.1v-6.303Z"/><rect width="57" height="57" x="2.5" y="2.5" stroke="#fff" stroke-width="5" rx="28.5"/></svg>