
<svg width="315" height="315" viewBox="0 0 315 315" fill="none" xmlns="http://www.w3.org/2000/svg">
    <circle cx="157.5" cy="157.5" r="157.5" fill="#DF2082"/>
    <path d="M81.8878 225.379L80.536 295.4C80.536 295.4 43.5653 306.62 56.745 362.786C56.745 362.786 43.5653 373.33 54.7849 385.901C66.0046 398.472 88.4439 396.445 103.651 391.173C103.651 391.173 113.519 402.933 132.038 399.757C147.448 397.121 151.166 391.849 151.166 391.849H174.281C174.281 391.849 194.963 409.895 224.026 391.376C224.026 391.376 242.275 401.041 259.51 392.457C276.677 383.873 268.093 364.746 264.106 360.758C260.118 356.771 257.482 354.81 257.482 354.81C257.482 354.81 272.487 318.245 240.315 304.592L235.043 229.975L81.8878 225.379Z" fill="white"/>
    <path d="M87.7005 232.408C98.5822 278.909 134.472 333.385 163.602 333.723C193.071 334.061 216.726 284.181 229.23 237.613C218.416 243.561 207.872 239.235 191.313 242.006C130.078 252.482 98.3794 238.627 87.7005 232.408Z" fill="#DF2082"/>
    <path d="M89.7955 335.615C91.0797 347.172 92.4315 358.865 96.9599 369.611C101.488 380.29 109.734 390.023 120.818 393.538C131.903 397.052 145.691 392.727 150.625 382.183C152.315 378.533 152.923 374.41 153.058 370.355C153.261 363.529 152.112 356.229 147.719 350.957C141.974 344.063 132.308 342.373 123.928 339.264C107.301 333.181 95.6081 320.948 86.6189 306.281C87.43 316.082 88.6465 325.814 89.7955 335.615Z" fill="url(#paint0_linear)"/>
    <path d="M235.177 337.035C233.893 348.593 233.082 360.826 228.554 371.505C224.025 382.184 215.78 391.917 204.695 395.431C193.611 398.946 179.823 394.62 174.889 384.077C173.199 380.427 172.591 376.304 172.456 372.249C172.253 365.422 173.402 358.123 177.795 352.851C183.54 346.025 193.205 344.267 201.586 341.158C218.213 335.075 226.797 317.908 235.786 303.241C234.975 313.109 236.259 327.303 235.177 337.035Z" fill="url(#paint1_linear)"/>
    <path d="M217.943 235.788L243.018 214.903C243.085 214.497 243.221 214.024 243.288 213.619C245.721 205.441 251.466 199.222 257.008 193.072C257.076 193.004 257.076 193.004 257.144 192.937C257.144 192.869 257.211 192.869 257.211 192.802C257.617 192.126 258.09 191.517 258.495 190.842C258.969 190.03 259.374 189.084 259.847 188.273C259.847 188.273 259.847 188.206 259.915 188.206C259.982 188.07 259.982 188.07 261.131 185.232C262.01 183.204 262.551 181.109 262.889 178.946C263.159 177.324 264.24 175.229 264.443 173.269C264.443 172.931 264.443 172.458 264.443 172.187C264.511 171.309 264.511 170.43 264.511 169.619C264.511 168.943 264.443 168.267 264.443 167.591C264.443 166.983 264.443 166.713 264.443 166.577C264.24 165.496 263.903 164.279 263.632 163.333C262.078 157.183 259.577 151.302 257.346 145.355C254.71 138.393 252.886 131.364 251.804 123.997C250.723 116.9 250.115 109.736 248.83 102.639C247.546 95.5421 245.992 88.4454 244.302 81.4162C243.423 77.6313 242.409 73.8463 241.328 70.129C240.855 68.642 240.449 67.2227 239.909 65.8033C239.841 65.6006 239.774 65.3978 239.706 65.2626C239.436 64.6543 239.165 64.046 238.827 63.4377C233.285 51.2043 225.918 39.8494 221.457 27.2104C221.187 27.3456 220.916 27.4808 220.781 27.5484C219.97 28.0215 219.159 28.4946 218.348 28.9677C218.145 29.1029 218.01 29.2381 217.807 29.4409C217.131 30.2519 216.726 30.3871 216.726 30.2519C216.523 30.4547 216.253 30.5899 216.05 30.7926C214.496 32.1444 213.076 33.6313 211.724 35.1859C211.724 35.1859 211.251 35.8617 210.913 36.1997C210.44 36.8756 209.9 37.5515 209.494 38.2949C208.48 39.917 207.669 41.6743 206.858 43.4316C206.79 43.5668 206.723 43.702 206.655 43.8371C206.115 45.0537 205.574 46.2703 205.033 47.4869C200.775 57.2872 195.571 67.831 184.486 71.1428C178.944 72.7649 172.726 71.6835 167.184 70.7373C165.224 70.3993 163.264 69.9938 161.304 69.5207L156.505 112.034C102.975 80.0644 63.098 163.603 63.098 163.603L93.3775 236.464C93.1071 236.261 92.8368 236.058 92.5664 235.788L130.145 248.156C148.529 250.725 167.251 250.792 185.635 248.359L217.943 235.788Z" fill="white"/>
    <path d="M281.206 172.93L273.703 170.362L277.556 164.144L256.739 121.293C256.671 119.738 256.536 118.252 256.401 116.765C250.385 34.307 221.458 24.3039 221.458 24.3039C212.806 18.3561 203.479 32.7525 197.193 45.797C192.665 55.2593 189.691 64.0458 189.691 64.0458C179.958 59.4498 169.144 59.585 163.535 58.8415V58.7739C154.14 59.5174 145.015 59.1794 133.39 64.2486C133.39 64.2486 130.619 55.3945 126.293 45.8646C120.278 32.6173 111.289 18.0858 102.502 23.7632C102.502 23.7632 73.3719 33.0904 65.4641 115.413C65.3289 116.9 65.1937 118.387 65.0585 119.941L43.2275 162.319L46.9449 168.605L39.375 171.038L50.5271 184.961L44.5117 185.907C47.418 189.49 50.5946 193.207 53.9741 197.059L84.186 229.231L83.5101 226.528C87.295 229.772 100.34 242.479 104.26 245.317L77.4272 195.708C63.8419 164.955 94.3242 115.48 130.416 109.397C141.771 107.505 145.962 112.507 159.952 120.82L161.642 121.225C175.362 113.656 181.783 107.37 196.856 110.141C229.433 116.156 256.266 164.955 243.221 195.505C242.883 196.384 242.41 197.195 241.937 197.938L217.267 239.978L219.633 241.33C219.498 242.208 216.794 251.13 218.619 250.116C229.771 244.101 211.657 238.626 230.244 232.611C235.516 230.921 256.604 207.13 265.863 198.682L265.931 198.614L265.998 198.546C269.445 194.761 274.785 190.976 277.759 187.462L269.648 186.516L281.206 172.93Z" fill="white"/>
    <path d="M100.948 47.5548C100.948 47.5548 78.1034 68.6423 82.8345 93.7176L110.681 72.6976C110.681 72.7652 107.301 41.4043 100.948 47.5548Z" fill="#DF2082"/>
    <path d="M220.714 42.6872C220.714 42.6872 243.018 64.2479 237.746 89.2555L210.373 67.6273C210.373 67.6273 214.496 36.3339 220.714 42.6872Z" fill="#DF2082"/>
    <path d="M91.0794 75.4682C91.4174 70.1963 93.3775 65.3975 94.7968 60.396C90.9443 66.4789 88.3759 73.5757 86.7538 80.6049C86.1455 83.3084 86.2131 87.2285 86.2807 91.2162L92.9719 86.1471C91.3498 82.9029 90.8091 79.1179 91.0794 75.4682Z" fill="#DF2082"/>
    <path d="M225.512 66.952C225.31 61.6801 223.417 56.8138 222.133 51.8123C225.85 58.0304 228.216 65.1272 229.703 72.1563C230.244 74.8599 230.041 78.8476 229.906 82.7677L223.35 77.5634C224.972 74.3868 225.648 70.6018 225.512 66.952Z" fill="#DF2082"/>
    <path d="M207.535 163.287C209.231 156.246 205.193 149.235 198.515 147.626C191.838 146.018 185.05 150.421 183.354 157.461C181.658 164.502 185.696 171.513 192.374 173.122C199.051 174.73 205.839 170.327 207.535 163.287Z" fill="#5CF1FF"/>
    <path d="M203.391 164.548C204.799 158.705 201.703 152.948 196.478 151.69C191.252 150.431 185.874 154.147 184.467 159.989C183.06 165.832 186.155 171.589 191.381 172.848C196.606 174.107 201.984 170.391 203.391 164.548Z" fill="#0F0F0F"/>
    <path d="M194.503 164.254C194.984 162.258 194.02 160.314 192.351 159.912C190.681 159.51 188.938 160.802 188.457 162.798C187.977 164.794 188.94 166.738 190.609 167.14C192.279 167.542 194.022 166.25 194.503 164.254Z" fill="white"/>
    <path d="M128.187 172.377C134.9 170.921 139.097 164.004 137.563 156.927C136.028 149.85 129.343 145.292 122.63 146.748C115.918 148.203 111.72 155.12 113.255 162.197C114.789 169.275 121.475 173.832 128.187 172.377Z" fill="#5CF1FF"/>
    <path d="M129.204 172.151C134.457 171.012 137.684 165.327 136.41 159.454C135.137 153.581 129.846 149.743 124.593 150.882C119.339 152.021 116.113 157.705 117.387 163.579C118.66 169.452 123.951 173.29 129.204 172.151Z" fill="#0F0F0F"/>
    <path d="M130.118 166.439C131.796 166.075 132.804 164.154 132.369 162.147C131.934 160.141 130.221 158.809 128.543 159.173C126.865 159.537 125.857 161.458 126.292 163.465C126.727 165.471 128.44 166.803 130.118 166.439Z" fill="white"/>
    <path d="M179.215 191.179C179.147 198.343 167.927 205.44 160.763 206.251C153.666 207.062 141.838 197.87 141.906 190.773C141.974 183.609 150.422 177.932 160.695 178.067C171.036 178.134 179.35 184.015 179.215 191.179Z" fill="#DF2082"/>
    <path d="M169.294 184.473C169.308 183.242 165.265 182.197 160.264 182.14C155.262 182.083 151.196 183.035 151.182 184.266C151.168 185.498 155.211 186.543 160.213 186.6C165.214 186.657 169.28 185.705 169.294 184.473Z" fill="#DF2082"/>
    <path d="M143.865 212.808C143.865 212.808 149.475 237.004 162.384 235.179C175.361 233.355 179.957 209.834 179.957 209.834L160.289 208.955L143.865 212.808Z" fill="#DF2082"/>
    <path opacity="0.54" d="M156.368 217.742C159.545 219.702 162.181 225.785 162.181 225.785C162.181 225.785 163.398 216.66 173.536 215.781C175.158 215.646 176.78 215.376 178.402 215.106C178.875 213.281 180.024 210.51 180.024 210.51L160.356 208.955L144.338 212.875C144.338 212.875 145.081 215.781 145.419 217.133C149.948 216.187 154.544 216.593 156.368 217.742Z" fill="#DF2082"/>
    <path d="M192.732 191.99C191.38 196.788 188.677 201.114 184.892 204.291C180.904 207.67 175.7 209.427 170.496 209.292C167.724 209.225 165.156 208.481 162.588 207.467C161.033 206.791 159.614 206.927 158.059 207.67C156.91 208.278 155.829 208.954 154.545 209.36C149.476 211.049 143.933 209.968 139.473 207.129C134.606 204.02 131.159 199.154 128.726 193.95C128.32 193.139 127.171 192.936 126.428 193.341C125.549 193.814 125.414 194.828 125.82 195.639C128.185 200.776 131.565 205.44 136.026 208.819C140.757 212.401 146.704 214.158 152.517 213.212C153.936 213.009 155.356 212.604 156.708 211.996C157.383 211.725 158.059 211.387 158.668 211.049C159.141 210.779 159.749 210.306 160.357 210.306C160.966 210.238 161.709 210.711 162.25 210.914C162.993 211.185 163.669 211.455 164.413 211.658C165.9 212.063 167.386 212.334 168.941 212.469C174.754 213.009 180.837 211.387 185.5 207.873C190.502 204.155 194.151 198.816 195.841 192.801C196.585 190.773 193.273 189.894 192.732 191.99Z" fill="#DF2082"/>
    <path d="M82.0233 228.353C82.0233 228.353 151.91 258.632 235.178 229.366L239.063 284.062C239.063 284.062 224.094 293.778 181.784 284.519C156.641 279.044 99.0555 253.225 83.6454 238.085C80.8743 235.314 81.2798 230.38 82.0233 228.353Z" fill="#DF2082"/>
    <path d="M168.604 260.523C167.725 263.565 167.252 266.674 167.252 269.783C167.252 270.662 167.996 271.405 168.874 271.338C169.753 271.27 170.631 270.594 170.631 269.648C170.631 268.228 170.767 266.742 170.969 265.322C171.037 264.646 171.172 264.308 171.307 263.497C171.51 262.754 171.645 262.01 171.916 261.334C172.186 260.523 171.713 259.51 170.767 259.307C169.888 259.104 168.874 259.577 168.604 260.523Z" fill="white"/>
    <path d="M171.308 262.417C171.375 262.349 171.713 262.282 171.781 262.214C171.781 262.282 171.375 262.349 171.646 262.282C171.713 262.282 171.781 262.214 171.916 262.214C172.254 262.079 172.592 262.012 172.93 262.012C172.795 262.012 172.592 262.079 172.457 262.079C172.998 262.012 173.538 262.012 174.079 262.079C173.944 262.079 173.741 262.012 173.606 262.012C174.011 262.079 174.417 262.147 174.822 262.282C174.89 262.282 174.958 262.349 174.958 262.349C174.89 262.282 174.822 262.282 174.687 262.214C174.755 262.214 174.89 262.349 174.958 262.349C175.093 262.417 175.228 262.552 175.431 262.62C175.566 262.687 175.498 262.62 175.228 262.485C175.296 262.552 175.296 262.552 175.363 262.62C175.431 262.687 175.498 262.755 175.566 262.823C175.634 262.89 175.634 262.89 175.701 262.958C175.836 263.093 175.769 263.025 175.566 262.823C175.566 262.89 175.634 262.958 175.701 263.025C175.769 263.093 175.769 263.161 175.836 263.228C176.039 263.634 175.769 262.89 175.836 263.161C175.904 263.363 175.904 263.498 175.904 263.701C175.904 263.566 175.904 263.431 175.836 263.228C175.836 263.498 175.836 263.701 175.769 263.972C175.769 263.836 175.836 263.701 175.836 263.566C175.769 263.769 175.769 263.904 175.701 264.107C175.634 264.377 175.904 263.769 175.769 263.972C175.701 264.039 175.701 264.107 175.634 264.174C175.566 264.242 175.498 264.309 175.498 264.377C175.701 264.174 175.769 264.107 175.634 264.242L175.566 264.31C175.498 264.377 175.431 264.445 175.363 264.512C175.228 264.58 175.025 264.647 175.498 264.445C175.363 264.512 175.228 264.58 175.093 264.647C175.025 264.715 174.89 264.715 174.822 264.783C174.687 264.85 174.755 264.783 175.025 264.715C174.958 264.715 174.89 264.783 174.89 264.783C174.552 264.918 174.214 264.985 173.809 264.985C173.944 264.985 174.147 264.985 174.282 264.918C173.809 264.985 173.336 264.985 172.862 264.918C172.998 264.918 173.133 264.985 173.336 264.985C172.93 264.918 172.592 264.85 172.254 264.715C171.916 264.58 172.592 264.85 172.322 264.715C172.254 264.647 172.187 264.647 172.119 264.58C171.984 264.512 171.511 264.107 171.984 264.512C171.646 264.242 171.308 264.039 170.767 264.039C170.362 264.039 169.821 264.242 169.551 264.58C168.942 265.188 168.74 266.337 169.483 266.945C170.159 267.419 170.835 267.824 171.646 268.027C172.322 268.23 173.133 268.297 173.809 268.23C175.363 268.162 176.985 267.689 178.067 266.54C178.743 265.864 179.148 265.053 179.283 264.107C179.418 263.296 179.283 262.417 178.945 261.674C178.337 260.254 176.783 259.24 175.296 258.835C173.471 258.362 171.375 258.565 169.686 259.578C168.875 260.051 168.469 261.133 169.01 261.876C169.415 262.62 170.429 262.89 171.308 262.417Z" fill="white"/>
    <path d="M185.434 260.93C183.136 263.769 181.987 267.148 181.176 270.595C180.973 271.406 181.243 272.42 182.19 272.758C183.001 273.028 184.082 272.758 184.285 271.879C184.69 270.257 185.163 268.567 185.839 267.013C185.975 266.675 186.177 266.337 186.312 265.932C186.38 265.729 186.515 265.594 186.583 265.391C186.65 265.323 186.65 265.188 186.718 265.121C186.65 265.256 186.65 265.256 186.718 265.121C187.123 264.377 187.664 263.701 188.205 263.025C188.746 262.349 188.61 261.2 187.867 260.66C187.056 260.119 185.975 260.187 185.434 260.93Z" fill="white"/>
    <path d="M186.921 263.363C187.191 263.431 186.38 263.16 186.786 263.295C187.124 263.431 186.448 263.025 186.65 263.228C186.718 263.295 186.786 263.295 186.853 263.363C187.056 263.498 186.921 263.566 186.786 263.295C186.853 263.431 187.124 263.633 187.259 263.836C187.394 263.971 187.597 264.174 187.664 264.377C187.529 263.904 187.664 264.309 187.732 264.444C187.799 264.512 187.867 264.647 187.867 264.715C188.002 264.985 188.137 265.255 188.273 265.526C188.543 266.067 188.746 266.607 188.948 267.148C189.151 267.689 189.354 268.297 189.557 268.905C189.557 268.973 189.76 269.514 189.624 269.04C189.692 269.176 189.692 269.378 189.759 269.514C189.827 269.784 189.895 270.054 189.962 270.325C190.097 270.798 190.165 271.338 190.233 271.812C190.233 272.014 190.3 272.217 190.3 272.42C190.3 272.623 190.3 273.298 190.3 272.623C190.3 273.501 190.773 274.447 191.72 274.583C192.531 274.718 193.544 274.177 193.544 273.231C193.544 271.271 193.071 269.378 192.463 267.486C191.855 265.526 191.111 263.431 189.827 261.808C189.151 260.93 188.273 260.186 187.191 259.984C186.313 259.848 185.366 260.524 185.299 261.403C185.299 262.417 185.907 263.16 186.921 263.363Z" fill="white"/>
    <path d="M183.339 270.257C184.961 270.73 186.515 271 188.137 271C188.543 271 188.948 271 189.354 271C189.489 271 189.759 271 189.219 271C189.286 271 189.354 271 189.421 271C189.557 271 189.692 271 189.759 271C190.03 271 190.3 271.068 190.503 271.068C190.638 271.068 190.706 271.135 190.841 271.135C190.908 271.135 190.976 271.135 191.044 271.203C191.314 271.271 190.638 271.068 190.908 271.135C191.719 271.406 192.733 271.203 193.071 270.324C193.342 269.581 193.071 268.364 192.193 268.094C190.908 267.621 189.692 267.621 188.34 267.621C188.408 267.621 188.746 267.621 188.543 267.621C188.475 267.621 188.408 267.621 188.272 267.621C188.137 267.621 187.935 267.621 187.799 267.621C187.461 267.621 187.123 267.553 186.786 267.553C186.38 267.486 185.974 267.418 185.569 267.35C185.366 267.283 185.163 267.283 184.961 267.215C184.825 267.215 184.758 267.148 184.623 267.148C184.893 267.283 184.623 267.148 184.488 267.08C184.014 266.945 183.609 266.877 183.203 267.08C182.865 267.215 182.46 267.621 182.325 267.959C182.122 268.905 182.46 270.054 183.339 270.257Z" fill="white"/>
    <path d="M216.523 267.689C215.645 266.337 213.82 265.932 212.198 265.999C210.373 266.134 208.886 267.148 208.007 268.703C207.264 270.055 206.926 271.879 206.926 273.434C206.993 275.191 207.737 276.881 209.021 277.962C210.373 279.044 212.198 279.787 213.955 279.314C214.766 279.111 215.577 278.368 215.51 277.354C215.442 276.543 214.699 275.664 213.752 275.867C213.482 275.935 213.279 275.935 213.009 276.002C212.806 276.002 213.144 276.002 213.144 276.002C213.144 276.002 213.009 276.002 212.941 276.002C212.806 276.002 212.671 276.002 212.536 275.935C212.468 275.935 212.063 275.8 212.265 275.867C212.468 275.935 212.13 275.8 212.063 275.8C211.792 275.664 211.589 275.529 211.319 275.394C211.184 275.326 211.454 275.462 211.454 275.462C211.454 275.462 211.319 275.394 211.319 275.326C211.184 275.259 211.116 275.191 210.981 275.056C210.914 274.989 210.846 274.921 210.711 274.786C210.643 274.718 210.576 274.583 210.711 274.786C210.846 274.989 210.711 274.786 210.643 274.718C210.576 274.583 210.508 274.515 210.44 274.38C210.305 274.11 210.508 274.515 210.373 274.245C210.305 274.11 210.305 273.975 210.238 273.839C210.238 273.772 210.17 273.637 210.17 273.569C210.238 273.704 210.17 273.772 210.17 273.569C210.17 273.299 210.103 272.961 210.103 272.691C210.103 272.488 210.103 272.826 210.103 272.826V272.623C210.103 272.488 210.17 272.285 210.17 272.15C210.238 271.879 210.305 271.609 210.373 271.271C210.373 271.136 210.44 271.001 210.44 270.933C210.44 270.866 210.508 270.798 210.508 270.663C210.576 270.46 210.373 271.001 210.508 270.73C210.643 270.46 210.711 270.19 210.846 269.987C210.981 269.717 210.643 270.19 210.846 269.919C210.914 269.784 211.049 269.717 211.116 269.581C211.252 269.446 211.049 269.649 211.049 269.649C211.116 269.581 211.184 269.514 211.252 269.446C211.319 269.379 211.387 269.379 211.454 269.311C211.657 269.176 211.319 269.379 211.319 269.379L211.589 269.243L211.792 269.176C211.792 269.244 211.387 269.244 211.657 269.176C211.792 269.176 211.927 269.108 212.063 269.108C212.13 269.108 212.198 269.108 212.265 269.108C212.333 269.108 212.333 269.108 212.401 269.108C212.536 269.108 212.536 269.108 212.401 269.108C212.265 269.041 212.265 269.108 212.401 269.108C212.468 269.108 212.536 269.108 212.603 269.108C212.738 269.108 212.874 269.176 213.009 269.176C213.076 269.176 213.347 269.176 213.076 269.176C212.874 269.176 213.009 269.176 213.144 269.176C213.279 269.244 213.347 269.244 213.482 269.311C213.55 269.311 213.685 269.379 213.482 269.311C213.279 269.244 213.482 269.311 213.55 269.379C213.617 269.379 213.685 269.514 213.55 269.379C213.347 269.176 213.55 269.379 213.55 269.446C214.023 270.19 215.172 270.392 215.915 269.784C216.794 269.514 217.064 268.432 216.523 267.689Z" fill="white"/>
    <path d="M221.39 268.233C220.376 271.545 219.498 274.857 218.889 278.236C218.686 279.115 219.227 280.061 220.106 280.129C220.984 280.196 221.931 279.52 222.134 278.507C222.809 275.127 223.688 271.815 224.769 268.436C225.04 267.557 224.364 266.611 223.485 266.611C222.471 266.611 221.66 267.287 221.39 268.233Z" fill="white"/>
    <path d="M221.593 274.716C223.823 275.054 226.054 275.325 228.284 275.527C229.095 275.595 230.177 274.649 230.38 273.703C230.582 272.689 230.109 272.013 229.231 271.945C227 271.81 224.702 271.54 222.404 271.202C221.525 271.067 220.512 271.878 220.376 272.824C220.174 273.838 220.714 274.514 221.593 274.716Z" fill="white"/>
    <path d="M229.635 268.431C228.689 272.013 227.743 275.596 226.797 279.178C226.526 280.124 227.067 281.003 227.946 280.935C228.824 280.868 229.771 280.124 230.041 279.11C231.055 275.528 232.001 271.878 233.015 268.296C233.285 267.35 232.745 266.539 231.798 266.606C230.852 266.674 229.906 267.418 229.635 268.431Z" fill="white"/>
    <path d="M198.613 265.323C198.546 266.201 198.546 267.08 198.546 267.959C198.546 268.364 198.546 268.702 198.546 269.108C198.546 269.31 198.546 269.31 198.546 269.108C198.546 269.243 198.546 269.31 198.546 269.446C198.546 269.648 198.546 269.784 198.546 269.986C198.546 270.662 198.478 271.406 198.411 272.082C198.343 272.42 198.343 272.758 198.276 273.028C198.276 273.163 198.208 273.366 198.14 273.501C198.343 273.095 198.14 273.569 198.073 273.704C197.802 274.515 198.073 275.596 198.884 276.002C199.627 276.34 200.709 276.137 201.047 275.191C201.587 273.771 201.722 272.284 201.79 270.797C201.858 269.919 201.858 269.04 201.858 268.161C201.858 268.026 201.858 267.959 201.858 267.824C201.858 268.026 201.858 267.959 201.858 267.756C201.858 267.621 201.858 267.418 201.858 267.283C201.858 266.81 201.925 266.404 201.925 265.931C201.993 265.052 201.52 264.106 200.506 263.971C199.762 263.836 198.681 264.377 198.613 265.323Z" fill="white"/>
    <path d="M195.099 265.322C198.275 266.336 201.587 266.404 204.696 267.417C205.575 267.688 206.589 266.877 206.656 265.998C206.791 264.984 206.183 264.308 205.237 264.038C202.06 263.024 198.681 262.957 195.504 262.01C194.625 261.74 193.612 262.551 193.544 263.362C193.544 264.376 194.152 265.052 195.099 265.322Z" fill="white"/>
    <path d="M161.168 132.446C121.291 131.432 65.8691 126.16 53.7708 139.002C53.7032 139.07 53.7032 139.07 53.7032 139.137C53.7032 141.638 54.7846 199.02 103.245 196.114C152.788 193.14 151.301 145.085 151.301 145.085H152.314H167.86H168.874C168.874 145.085 167.387 193.14 216.929 196.114C266.471 199.088 266.471 139.137 266.471 139.07C254.575 127.174 198.139 131.905 161.168 132.446Z" fill="#DF2082"/>
    <path d="M62.7604 141.975C62.7604 141.975 62.7604 189.557 102.367 189.557C141.974 189.557 142.852 140.218 142.852 140.218C142.852 140.218 87.4301 131.364 62.7604 141.975Z" fill="#DF2082"/>
    <path d="M256.738 143.935C256.738 143.935 255.86 191.517 216.253 191.517C176.646 191.517 175.768 140.826 175.768 140.826C175.768 140.826 232.069 133.323 256.738 143.935Z" fill="#DF2082"/>
    <path opacity="0.23" d="M98.9193 138.596L76.1421 175.904C78.3049 178.338 80.8057 180.568 83.8471 182.461L111.22 138.461C107.233 138.393 103.11 138.461 98.9193 138.596Z" fill="white"/>
    <path opacity="0.23" d="M130.348 139.204L124.806 138.866C124.265 138.866 123.657 138.799 123.116 138.799L93.0392 187.124C94.5937 187.462 96.2834 187.8 97.9731 187.935L98.4462 187.665L130.348 139.204Z" fill="white"/>
    <path opacity="0.23" d="M213.279 140.285L189.488 178.473C191.65 180.906 194.151 183.136 197.193 185.029L225.58 140.15C221.592 140.083 217.402 140.083 213.279 140.285Z" fill="white"/>
    <path opacity="0.23" d="M244.505 141.368L238.557 140.354C238.017 140.354 237.408 140.286 236.8 140.286L205.709 189.288C207.264 189.625 208.954 189.896 210.711 190.099L211.184 189.828L244.505 141.368Z" fill="white"/>
    <path d="M73.5747 135.149L58.57 127.174L55.9341 142.178L73.5747 135.149Z" fill="#DF2082"/>
    <path d="M247.073 136.433L262.01 128.458L264.646 143.462L247.073 136.433Z" fill="#DF2082"/>
    <defs>
        <linearGradient id="paint0_linear" x1="113.792" y1="102.363" x2="127.19" y2="625.72" gradientUnits="userSpaceOnUse">
            <stop offset="0.3101" stop-color="#FCFCFA"/>
            <stop offset="0.5428" stop-color="#F4F6F8"/>
            <stop offset="0.7673" stop-color="#E8ECF5"/>
        </linearGradient>
        <linearGradient id="paint1_linear" x1="210.563" y1="88.4412" x2="196.439" y2="640.19" gradientUnits="userSpaceOnUse">
            <stop offset="0.3101" stop-color="#FCFCFA"/>
            <stop offset="0.5428" stop-color="#F4F6F8"/>
            <stop offset="0.7673" stop-color="#E8ECF5"/>
        </linearGradient>
    </defs>
</svg>
