<svg style="position: absolute; width: 0; height: 0; overflow: hidden;" version="1.1"
     xmlns="http://www.w3.org/2000/svg">
    <defs>
        <symbol id="Wheelchair" viewBox="0 0 24 24" fill-rule="evenodd" clip-rule="evenodd">
            <path d="M7 9.866v2.392c-1.221 1.009-2 2.535-2 4.242 0 3.035 2.464 5.5 5.5 5.5 2.256 0 4.197-1.362 5.045-3.308l1.248 1.887c-1.338 2.058-3.658 3.421-6.293 3.421-4.14 0-7.5-3.361-7.5-7.5 0-2.876 1.622-5.376 4-6.634zm10 .134c.552 0 1 .448 1 1s-.448 1-1 1c-1.185 0-3.224.005-4 0 0 2.62 3.641.927 5.274 3.443.726 1.119 1.953 2.998 2.59 4.091.088.151.132.303.136.466.007.352-.174.711-.502.9-.23.132-.933.287-1.366-.366-.67-1.011-1.45-2.211-1.996-3.025-.782-1.166-1.308-1.459-4.136-1.509-2.039-.036-4-.43-4-3v-4c0-.531.21-1.039.586-1.414.375-.376.883-.586 1.414-.586.53 0 1.039.21 1.414.586.375.375.586.883.586 1.414v1h4zm-6-10c1.656 0 3 1.344 3 3s-1.344 3-3 3-3-1.344-3-3 1.344-3 3-3z"/>
        </symbol>
        <symbol id="Captions" viewBox="0 0 24 24" fill-rule="evenodd" clip-rule="evenodd">
            <path d="M18.75,4 C20.5449254,4 22,5.45507456 22,7.25 L22,16.754591 C22,18.5495164 20.5449254,20.004591 18.75,20.004591 L5.25,20.004591 C3.45507456,20.004591 2,18.5495164 2,16.754591 L2,7.25 C2,5.51696854 3.35645477,4.10075407 5.06557609,4.00514479 L5.25,4 L18.75,4 Z M18.75,5.5 L5.25,5.5 L5.10647279,5.5058012 C4.20711027,5.57880766 3.5,6.3318266 3.5,7.25 L3.5,16.754591 C3.5,17.7210893 4.28350169,18.504591 5.25,18.504591 L18.75,18.504591 C19.7164983,18.504591 20.5,17.7210893 20.5,16.754591 L20.5,7.25 C20.5,6.28350169 19.7164983,5.5 18.75,5.5 Z M5.5,12 C5.5,8.85441664 8.21322176,7.22468635 10.6216203,8.59854135 C10.981411,8.80378156 11.1066989,9.2618296 10.9014586,9.62162028 C10.6962184,9.98141095 10.2381704,10.1066989 9.87837972,9.90145865 C8.48070939,9.10416685 7,9.9935733 7,12 C7,14.0045685 8.48410774,14.8962094 9.8791978,14.102709 C10.2392458,13.8979206 10.6971362,14.0237834 10.9019246,14.3838314 C11.106713,14.7438795 10.9808502,15.2017699 10.6208022,15.4065583 C8.21538655,16.7747125 5.5,15.1433285 5.5,12 Z M13,12 C13,8.85441664 15.7132218,7.22468635 18.1216203,8.59854135 C18.481411,8.80378156 18.6066989,9.2618296 18.4014586,9.62162028 C18.1962184,9.98141095 17.7381704,10.1066989 17.3783797,9.90145865 C15.9807094,9.10416685 14.5,9.9935733 14.5,12 C14.5,14.0045685 15.9841077,14.8962094 17.3791978,14.102709 C17.7392458,13.8979206 18.1971362,14.0237834 18.4019246,14.3838314 C18.606713,14.7438795 18.4808502,15.2017699 18.1208022,15.4065583 C15.7153866,16.7747125 13,15.1433285 13,12 Z"/>
        </symbol>
        <symbol id="Search" viewBox="0 0 24 24" clip-rule="evenodd" fill-rule="evenodd">
            <path d="M23.809 21.646l-6.205-6.205c1.167-1.605 1.857-3.579 1.857-5.711 0-5.365-4.365-9.73-9.731-9.73-5.365 0-9.73 4.365-9.73 9.73 0 5.366 4.365 9.73 9.73 9.73 2.034 0 3.923-.627 5.487-1.698l6.238 6.238 2.354-2.354zm-20.955-11.916c0-3.792 3.085-6.877 6.877-6.877s6.877 3.085 6.877 6.877-3.085 6.877-6.877 6.877c-3.793 0-6.877-3.085-6.877-6.877z"/>
        </symbol>
        <symbol id="ShoppingCart" viewBox="0 0 24 24" clip-rule="evenodd" fill-rule="evenodd">
            <path d="M11.476 8.853c-.469-.288-.616-.903-.328-1.372l3.004-5.004c.191-.312.517-.477.849-.477.776 0 1.259.855.851 1.519l-3.005 5.005c-.294.479-.91.611-1.371.329zm3.426.147l-.351.569c-.548.896-1.503 1.431-2.553 1.431-1.202 0-2.359-.72-2.812-2h-9.186v2h.643c.535 0 1.021.304 1.256.784l4.101 10.216h12l4.102-10.214c.234-.481.722-.786 1.256-.786h.642v-2h-9.098zm-5.902 9c0 .552-.447 1-1 1s-1-.448-1-1v-4c0-.552.447-1 1-1s1 .448 1 1v4zm4 0c0 .552-.447 1-1 1s-1-.448-1-1v-4c0-.552.447-1 1-1s1 .448 1 1v4zm4 0c0 .552-.447 1-1 1s-1-.448-1-1v-4c0-.552.447-1 1-1s1 .448 1 1v4z"/>
        </symbol>
        <symbol id="FacebookCircle" viewBox="0 0 24 24" clip-rule="evenodd" fill-rule="evenodd">
            <path d="M12 0c-6.627 0-12 5.373-12 12s5.373 12 12 12 12-5.373 12-12-5.373-12-12-12zm3 8h-1.35c-.538 0-.65.221-.65.778v1.222h2l-.209 2h-1.791v7h-3v-7h-2v-2h2v-2.308c0-1.769.931-2.692 3.029-2.692h1.971v3z"/>
        </symbol>
        <symbol id="Facebook" viewBox="0 0 24 24" clip-rule="evenodd" fill-rule="evenodd">
            <path d="M9 8h-3v4h3v12h5v-12h3.642l.358-4h-4v-1.667c0-.955.192-1.333 1.115-1.333h2.885v-5h-3.808c-3.596 0-5.192 1.583-5.192 4.615v3.385z"/>
        </symbol>
        <symbol id="Linkedin" viewBox="0 0 24 24" clip-rule="evenodd" fill-rule="evenodd">
            <path d="M0 0v24h24v-24h-24zm8 19h-3v-11h3v11zm-1.5-12.268c-.966 0-1.75-.79-1.75-1.764s.784-1.764 1.75-1.764 1.75.79 1.75 1.764-.783 1.764-1.75 1.764zm13.5 12.268h-3v-5.604c0-3.368-4-3.113-4 0v5.604h-3v-11h3v1.765c1.397-2.586 7-2.777 7 2.476v6.759z"/>
        </symbol>
        <symbol id="Twitter" viewBox="0 0 24 24" clip-rule="evenodd" fill-rule="evenodd">
            <path d="M24 4.557c-.883.392-1.832.656-2.828.775 1.017-.609 1.798-1.574 2.165-2.724-.951.564-2.005.974-3.127 1.195-.897-.957-2.178-1.555-3.594-1.555-3.179 0-5.515 2.966-4.797 6.045-4.091-.205-7.719-2.165-10.148-5.144-1.29 2.213-.669 5.108 1.523 6.574-.806-.026-1.566-.247-2.229-.616-.054 2.281 1.581 4.415 3.949 4.89-.693.188-1.452.232-2.224.084.626 1.956 2.444 3.379 4.6 3.419-2.07 1.623-4.678 2.348-7.29 2.04 2.179 1.397 4.768 2.212 7.548 2.212 9.142 0 14.307-7.721 13.995-14.646.962-.695 1.797-1.562 2.457-2.549z"/>
        </symbol>
        <symbol id="Instagram" viewBox="0 0 24 24" clip-rule="evenodd" fill-rule="evenodd">
            <path d="M12 2.163c3.204 0 3.584.012 4.85.07 3.252.148 4.771 1.691 4.919 4.919.058 1.265.069 1.645.069 4.849 0 3.205-.012 3.584-.069 4.849-.149 3.225-1.664 4.771-4.919 4.919-1.266.058-1.644.07-4.85.07-3.204 0-3.584-.012-4.849-.07-3.26-.149-4.771-1.699-4.919-4.92-.058-1.265-.07-1.644-.07-4.849 0-3.204.013-3.583.07-4.849.149-3.227 1.664-4.771 4.919-4.919 1.266-.057 1.645-.069 4.849-.069zm0-2.163c-3.259 0-3.667.014-4.947.072-4.358.2-6.78 2.618-6.98 6.98-.059 1.281-.073 1.689-.073 4.948 0 3.259.014 3.668.072 4.948.2 4.358 2.618 6.78 6.98 6.98 1.281.058 1.689.072 4.948.072 3.259 0 3.668-.014 4.948-.072 4.354-.2 6.782-2.618 6.979-6.98.059-1.28.073-1.689.073-4.948 0-3.259-.014-3.667-.072-4.947-.196-4.354-2.617-6.78-6.979-6.98-1.281-.059-1.69-.073-4.949-.073zm0 5.838c-3.403 0-6.162 2.759-6.162 6.162s2.759 6.163 6.162 6.163 6.162-2.759 6.162-6.163c0-3.403-2.759-6.162-6.162-6.162zm0 10.162c-2.209 0-4-1.79-4-4 0-2.209 1.791-4 4-4s4 1.791 4 4c0 2.21-1.791 4-4 4zm6.406-11.845c-.796 0-1.441.645-1.441 1.44s.645 1.44 1.441 1.44c.795 0 1.439-.645 1.439-1.44s-.644-1.44-1.439-1.44z"/>
        </symbol>
        <symbol id="Calendar" viewBox="0 0 24 24" clip-rule="evenodd" fill-rule="evenodd">
            <path d="M20 20h-4v-4h4v4zm-6-10h-4v4h4v-4zm6 0h-4v4h4v-4zm-12 6h-4v4h4v-4zm6 0h-4v4h4v-4zm-6-6h-4v4h4v-4zm16-8v22h-24v-22h3v1c0 1.103.897 2 2 2s2-.897 2-2v-1h10v1c0 1.103.897 2 2 2s2-.897 2-2v-1h3zm-2 6h-20v14h20v-14zm-2-7c0-.552-.447-1-1-1s-1 .448-1 1v2c0 .552.447 1 1 1s1-.448 1-1v-2zm-14 2c0 .552-.447 1-1 1s-1-.448-1-1v-2c0-.552.447-1 1-1s1 .448 1 1v2z"/>
        </symbol>
        <symbol id="Person" viewBox="0 0 24 24" clip-rule="evenodd" fill-rule="evenodd" stroke-linejoin="round"
                stroke-miterlimit="2">
            <path d="m19.023 7c-.389 0-3.3 1-7.023 1-3.75 0-6.605-1-7.024-1-.538 0-.976.438-.976.976 0 .453.321.854.757.951 2.162.563 4.571.948 4.571 3.132 0 3.565-2.321 6.899-3.26 8.476-.086.149-.131.319-.131.489 0 .539.438.976.977.976.261 0 .508-.103.694-.29.769-.772 2.292-3.072 2.989-4.182.391-.622.791-1.18 1.409-1.181.603.001 1.005.559 1.397 1.181.697 1.11 2.219 3.41 2.988 4.182.185.187.432.29.695.29.538 0 .976-.437.976-.976 0-.17-.045-.339-.141-.505-.962-1.617-3.25-4.891-3.25-8.46 0-2.309 2.751-2.661 4.563-3.13.443-.099.766-.5.766-.953 0-.538-.439-.976-.977-.976zm-7-5c1.374 0 2.488 1.12 2.488 2.5s-1.114 2.5-2.488 2.5c-1.373 0-2.489-1.12-2.489-2.5s1.116-2.5 2.489-2.5z"
                  fill-rule="nonzero"/>
        </symbol>
        <symbol id="EmailAt" viewBox="0 0 24 24">
            <path d="M12.042 23.648c-7.813 0-12.042-4.876-12.042-11.171 0-6.727 4.762-12.125 13.276-12.125 6.214 0 10.724 4.038 10.724 9.601 0 8.712-10.33 11.012-9.812 6.042-.71 1.108-1.854 2.354-4.053 2.354-2.516 0-4.08-1.842-4.08-4.807 0-4.444 2.921-8.199 6.379-8.199 1.659 0 2.8.876 3.277 2.221l.464-1.632h2.338c-.244.832-2.321 8.527-2.321 8.527-.648 2.666 1.35 2.713 3.122 1.297 3.329-2.58 3.501-9.327-.998-12.141-4.821-2.891-15.795-1.102-15.795 8.693 0 5.611 3.95 9.381 9.829 9.381 3.436 0 5.542-.93 7.295-1.948l1.177 1.698c-1.711.966-4.461 2.209-8.78 2.209zm-2.344-14.305c-.715 1.34-1.177 3.076-1.177 4.424 0 3.61 3.522 3.633 5.252.239.712-1.394 1.171-3.171 1.171-4.529 0-2.917-3.495-3.434-5.246-.134z"/>
        </symbol>
        <symbol id="ListIcon" clip-rule="evenodd" fill-rule="evenodd" stroke-linejoin="round" stroke-miterlimit="2"
                viewBox="0 0 24 24">
            <path d="m3.3 15.4c.717 0 1.3.583 1.3 1.3s-.583 1.3-1.3 1.3-1.3-.583-1.3-1.3.583-1.3 1.3-1.3zm2.7 1.85c0-.414.336-.75.75-.75h14.5c.414 0 .75.336.75.75s-.336.75-.75.75h-14.5c-.414 0-.75-.336-.75-.75zm-2.7-6.55c.717 0 1.3.583 1.3 1.3s-.583 1.3-1.3 1.3-1.3-.583-1.3-1.3.583-1.3 1.3-1.3zm2.7 1.3c0-.414.336-.75.75-.75h14.5c.414 0 .75.336.75.75s-.336.75-.75.75h-14.5c-.414 0-.75-.336-.75-.75zm-2.7-6c.717 0 1.3.583 1.3 1.3s-.583 1.3-1.3 1.3-1.3-.583-1.3-1.3.583-1.3 1.3-1.3zm2.7.75c0-.414.336-.75.75-.75h14.5c.414 0 .75.336.75.75s-.336.75-.75.75h-14.5c-.414 0-.75-.336-.75-.75z"
                  fill-rule="nonzero"/>
        </symbol>
        <symbol id="Filter" viewBox="0 0 24 24" clip-rule="evenodd" fill-rule="evenodd">
            <path d="M1 0h22l-9 14.094v9.906l-4-2v-7.906z"/>
        </symbol>
        <symbol id="ArrowFullLeft" clip-rule="evenodd" fill-rule="evenodd" stroke-linejoin="round" stroke-miterlimit="2"
                viewBox="0 0 24 24">
            <path d="m10.978 14.999v3.251c0 .412-.335.75-.752.75-.188 0-.375-.071-.518-.206-1.775-1.685-4.945-4.692-6.396-6.069-.2-.189-.312-.452-.312-.725 0-.274.112-.536.312-.725 1.451-1.377 4.621-4.385 6.396-6.068.143-.136.33-.207.518-.207.417 0 .752.337.752.75v3.251h9.02c.531 0 1.002.47 1.002 1v3.998c0 .53-.471 1-1.002 1z"
                  fill-rule="nonzero"/>
        </symbol>
        <symbol id="Globe" viewBox="0 0 24 24" clip-rule="evenodd" fill-rule="evenodd">
            <path d="M13.144 8.171c-.035-.066.342-.102.409-.102.074.009-.196.452-.409.102zm-2.152-3.072l.108-.031c.064.055-.072.095-.051.136.086.155.021.248.008.332-.014.085-.104.048-.149.093-.053.066.258.075.262.085.011.033-.375.089-.304.171.096.136.824-.195.708-.176.225-.113.029-.125-.097-.19-.043-.215-.079-.547-.213-.68l.088-.102c-.206-.299-.36.362-.36.362zm13.008 6.901c0 6.627-5.373 12-12 12-6.628 0-12-5.373-12-12s5.372-12 12-12c6.627 0 12 5.373 12 12zm-8.31-5.371c-.006-.146-.19-.284-.382-.031-.135.174-.111.439-.184.557-.104.175.567.339.567.174.025-.277.732-.063.87-.025.248.069.643-.226.211-.381-.355-.13-.542-.269-.574-.523 0 0 .188-.176.106-.166-.218.027-.614.786-.614.395zm6.296 5.371c0-1.035-.177-2.08-.357-2.632-.058-.174-.189-.312-.359-.378-.256-.1-1.337.597-1.5.254-.107-.229-.324.146-.572.008-.12-.066-.454-.515-.605-.46-.309.111.474.964.688 1.076.201-.152.852-.465.992-.038.268.804-.737 1.685-1.251 2.149-.768.694-.624-.449-1.147-.852-.275-.211-.272-.66-.55-.815-.124-.07-.693-.725-.688-.813l-.017.166c-.094.071-.294-.268-.315-.321 0 .295.48.765.639 1.001.271.405.416.995.748 1.326.178.178.858.914 1.035.898.193-.017.803-.458.911-.433.644.152-1.516 3.205-1.721 3.583-.169.317.138 1.101.113 1.476-.029.433-.37.573-.693.809-.346.253-.265.745-.556.925-.517.318-.889 1.353-1.623 1.348-.216-.001-1.14.36-1.261.007-.094-.256-.22-.45-.353-.703-.13-.248-.015-.505-.173-.724-.109-.152-.475-.497-.508-.677-.002-.155.117-.626.28-.708.229-.117.044-.458.016-.656-.048-.354-.267-.646-.53-.851-.389-.299-.188-.537-.097-.964 0-.204-.124-.472-.398-.392-.564.164-.393-.44-.804-.413-.296.021-.538.209-.813.292-.346.104-.7-.082-1.042-.125-1.407-.178-1.866-1.786-1.499-2.946.037-.19-.114-.542-.048-.689.158-.352.48-.747.762-1.014.158-.15.361-.112.547-.229.287-.181.291-.553.572-.781.4-.325.946-.318 1.468-.388.278-.037 1.336-.266 1.503-.06 0 .038.191.604-.019.572.433.023 1.05.749 1.461.579.211-.088.134-.736.567-.423.262.188 1.436.272 1.68.069.15-.124.234-.93.052-1.021.116.115-.611.124-.679.098-.12-.044-.232.114-.425.025.116.055-.646-.354-.218-.667-.179.131-.346-.037-.539.107-.133.108.062.18-.128.274-.302.153-.53-.525-.644-.602-.116-.076-1.014-.706-.77-.295l.789.785c-.039.025-.207-.286-.207-.059.053-.135.02.579-.104.347-.055-.089.09-.139.006-.268 0-.085-.228-.168-.272-.226-.125-.155-.457-.497-.637-.579-.05-.023-.764.087-.824.11-.07.098-.13.201-.179.311-.148.055-.287.126-.419.214l-.157.353c-.068.061-.765.291-.769.3.029-.075-.487-.171-.453-.321.038-.165.213-.68.168-.868-.048-.197 1.074.284 1.146-.235.029-.225.046-.487-.313-.525.068.008.695-.246.799-.36.146-.168.481-.442.724-.442.284 0 .223-.413.354-.615.131.053-.07.376.087.507-.01-.103.445.057.489.033.104-.054.684-.022.594-.294-.1-.277.051-.195.181-.253-.022.009.34-.619.402-.413-.043-.212-.421.074-.553.063-.305-.024-.176-.52-.061-.665.089-.115-.243-.256-.247-.036-.006.329-.312.627-.241 1.064.108.659-.735-.159-.809-.114-.28.17-.509-.214-.364-.444.148-.235.505-.224.652-.476.104-.178.225-.385.385-.52.535-.449.683-.09 1.216-.041.521.048.176.124.104.324-.069.19.286.258.409.099.07-.092.229-.323.298-.494.089-.222.901-.197.334-.536-.374-.223-2.004-.672-3.096-.672-.236 0-.401.263-.581.412-.356.295-1.268.874-1.775.698-.519-.179-1.63.66-1.808.666-.065.004.004-.634.358-.681-.153.023 1.247-.707 1.209-.859-.046-.18-2.799.822-2.676 1.023.059.092.299.092-.016.294-.18.109-.372.801-.541.801-.505.221-.537-.435-1.099.409l-.894.36c-1.328 1.411-2.247 3.198-2.58 5.183-.013.079.334.226.379.28.112.134.112.712.167.901.138.478.479.744.74 1.179.154.259.41.914.329 1.186.108-.178 1.07.815 1.246 1.022.414.487.733 1.077.061 1.559-.217.156.33 1.129.048 1.368l-.361.093c-.356.219-.195.756.021.982 1.818 1.901 4.38 3.087 7.22 3.087 5.517 0 9.989-4.472 9.989-9.989zm-11.507-6.357c.125-.055.293-.053.311-.22.015-.148.044-.046.08-.1.035-.053-.067-.138-.11-.146-.064-.014-.108.069-.149.104l-.072.019-.068.087.008.048-.087.106c-.085.084.002.139.087.102z"/>
        </symbol>
        <symbol id="Close" viewBox="0 0 24 24" clip-rule="evenodd" fill-rule="evenodd" stroke-linejoin="round"
                stroke-miterlimit="2">
            <path d="M24 20.188l-8.315-8.209 8.2-8.282-3.697-3.697-8.212 8.318-8.31-8.203-3.666 3.666 8.321 8.24-8.206 8.313 3.666 3.666 8.237-8.318 8.285 8.203z"/>
        </symbol>
        <symbol id="Exclamation" clip-rule="evenodd" fill-rule="evenodd" stroke-linejoin="round" stroke-miterlimit="2"
                viewBox="0 0 24 24">
            <path d="M12 2c5.514 0 10 4.486 10 10s-4.486 10-10 10-10-4.486-10-10 4.486-10 10-10zm0-2c-6.627 0-12 5.373-12 12s5.373 12 12 12 12-5.373 12-12-5.373-12-12-12zm-1.31 7.526c-.099-.807.528-1.526 1.348-1.526.771 0 1.377.676 1.28 1.451l-.757 6.053c-.035.283-.276.496-.561.496s-.526-.213-.562-.496l-.748-5.978zm1.31 10.724c-.69 0-1.25-.56-1.25-1.25s.56-1.25 1.25-1.25 1.25.56 1.25 1.25-.56 1.25-1.25 1.25z"/>
        </symbol>
        <symbol id="ChevronDown" viewBox="0 0 24 24" fill-rule="evenodd" stroke-linejoin="round" stroke-miterlimit="2">
            <path d="M0 7.33l2.829-2.83 9.175 9.339 9.167-9.339 2.829 2.83-11.996 12.17z"/>
        </symbol>
        <symbol id="Orientation" viewBox="0 0 24 24">
            <path d="M21 14.874v-1.814h-3.25c-.745 0-1.128-.26-1.451-.706l-1.709-2.302-2.791 3.024 1.509 2.149c.478.753.514 1.267.514 1.952v5.823h-2.699v-5.474c-.021-1.512-2.455-2.945-3.303-1.723l-1.617 2.281c-.359.51-.971.686-1.565.686h-4.638v-2.621l3.483-.003c.544 0 1.017-.193 1.274-.806l1.549-3.782c.269-.563.632-1.076 1.076-1.515l3.609-3.573-1.02-.891c-.306-.267-.716-.381-1.116-.311l-2.999.525-.471-2.201 4.115-.784c.771-.147 1.433.103 2.009.636l3.961 3.656c.628.57 1.272 1.563 2.276 3.047.184.272.443.656 1.053.656h2.201v-1.85l3 2.96-3 2.961zm-3.101-8.747c1.403-.268 2.323-1.623 2.055-3.026-.269-1.403-1.624-2.323-3.026-2.055-1.403.269-2.323 1.624-2.055 3.026.268 1.404 1.623 2.324 3.026 2.055z"/>
        </symbol>
        <!-- Toilet -->
        <symbol id="Toilet" viewBox="0 0 24 24" fill-rule="evenodd" stroke-linejoin="round" stroke-miterlimit="2">
            <path d="M12 0c-6.627 0-12 5.373-12 12s5.373 12 12 12 12-5.373 12-12-5.373-12-12-12zm0 2c5.514 0 10 4.486 10 10s-4.486 10-10 10-10-4.486-10-10 4.486-10 10-10zm0 4c-1.654 0-3 1.346-3 3s1.346 3 3 3 3-1.346 3-3-1.346-3-3-3zm0 2c.552 0 1 .448 1 1s-.448 1-1 1-1-.448-1-1 .448-1 1-1zm-1 4c0-.552.448-1 1-1h2c.552 0 1 .448 1 1v5c0 .552-.448 1-1 1h-2c-.552 0-1-.448-1-1v-5z"/>
        </symbol>
    </defs>
</svg>
